<mxfile host="app.diagrams.net" agent="Mozilla/5.0 (Windows NT 10.0; Win64; x64) AppleWebKit/537.36 (KHTML, like Gecko) Chrome/138.0.0.0 Safari/537.36" version="28.0.9">
  <diagram name="第 1 页" id="eLI_J3A6WMu98hMkHxX8">
    <mxGraphModel dx="1426" dy="785" grid="1" gridSize="10" guides="1" tooltips="1" connect="1" arrows="1" fold="1" page="1" pageScale="1" pageWidth="827" pageHeight="1169" math="0" shadow="0">
      <root>
        <mxCell id="0" />
        <mxCell id="1" parent="0" />
        <mxCell id="cua7ZDRnnkRjORxVJLJu-7" value="" style="edgeStyle=orthogonalEdgeStyle;rounded=0;orthogonalLoop=1;jettySize=auto;html=1;" edge="1" parent="1" source="cua7ZDRnnkRjORxVJLJu-1" target="cua7ZDRnnkRjORxVJLJu-2">
          <mxGeometry relative="1" as="geometry" />
        </mxCell>
        <mxCell id="cua7ZDRnnkRjORxVJLJu-1" value="1" style="ellipse;whiteSpace=wrap;html=1;aspect=fixed;" vertex="1" parent="1">
          <mxGeometry x="240" y="200" width="40" height="40" as="geometry" />
        </mxCell>
        <mxCell id="cua7ZDRnnkRjORxVJLJu-8" value="" style="edgeStyle=orthogonalEdgeStyle;rounded=0;orthogonalLoop=1;jettySize=auto;html=1;" edge="1" parent="1" source="cua7ZDRnnkRjORxVJLJu-2" target="cua7ZDRnnkRjORxVJLJu-3">
          <mxGeometry relative="1" as="geometry" />
        </mxCell>
        <mxCell id="cua7ZDRnnkRjORxVJLJu-2" value="2" style="ellipse;whiteSpace=wrap;html=1;aspect=fixed;" vertex="1" parent="1">
          <mxGeometry x="320" y="200" width="40" height="40" as="geometry" />
        </mxCell>
        <mxCell id="cua7ZDRnnkRjORxVJLJu-9" value="" style="edgeStyle=orthogonalEdgeStyle;rounded=0;orthogonalLoop=1;jettySize=auto;html=1;" edge="1" parent="1" source="cua7ZDRnnkRjORxVJLJu-3" target="cua7ZDRnnkRjORxVJLJu-4">
          <mxGeometry relative="1" as="geometry" />
        </mxCell>
        <mxCell id="cua7ZDRnnkRjORxVJLJu-3" value="3" style="ellipse;whiteSpace=wrap;html=1;aspect=fixed;" vertex="1" parent="1">
          <mxGeometry x="400" y="200" width="40" height="40" as="geometry" />
        </mxCell>
        <mxCell id="cua7ZDRnnkRjORxVJLJu-4" value="4" style="ellipse;whiteSpace=wrap;html=1;aspect=fixed;" vertex="1" parent="1">
          <mxGeometry x="490" y="200" width="40" height="40" as="geometry" />
        </mxCell>
        <mxCell id="cua7ZDRnnkRjORxVJLJu-6" value="1" style="rounded=0;whiteSpace=wrap;html=1;fillColor=#d5e8d4;strokeColor=#82b366;" vertex="1" parent="1">
          <mxGeometry x="40" y="200" width="40" height="40" as="geometry" />
        </mxCell>
        <mxCell id="cua7ZDRnnkRjORxVJLJu-21" value="" style="edgeStyle=orthogonalEdgeStyle;rounded=0;orthogonalLoop=1;jettySize=auto;html=1;" edge="1" parent="1" source="cua7ZDRnnkRjORxVJLJu-11" target="cua7ZDRnnkRjORxVJLJu-19">
          <mxGeometry relative="1" as="geometry" />
        </mxCell>
        <mxCell id="cua7ZDRnnkRjORxVJLJu-11" value="dummy" style="text;html=1;align=center;verticalAlign=middle;resizable=0;points=[];autosize=1;strokeColor=none;fillColor=none;" vertex="1" parent="1">
          <mxGeometry x="150" y="138" width="60" height="30" as="geometry" />
        </mxCell>
        <mxCell id="cua7ZDRnnkRjORxVJLJu-16" value="" style="edgeStyle=orthogonalEdgeStyle;rounded=0;orthogonalLoop=1;jettySize=auto;html=1;entryX=0.5;entryY=1;entryDx=0;entryDy=0;" edge="1" parent="1" source="cua7ZDRnnkRjORxVJLJu-14" target="cua7ZDRnnkRjORxVJLJu-1">
          <mxGeometry relative="1" as="geometry">
            <mxPoint x="260" y="250" as="targetPoint" />
          </mxGeometry>
        </mxCell>
        <mxCell id="cua7ZDRnnkRjORxVJLJu-14" value="slow" style="text;html=1;align=center;verticalAlign=middle;resizable=0;points=[];autosize=1;strokeColor=none;fillColor=none;" vertex="1" parent="1">
          <mxGeometry x="235" y="270" width="50" height="30" as="geometry" />
        </mxCell>
        <mxCell id="cua7ZDRnnkRjORxVJLJu-18" value="" style="edgeStyle=orthogonalEdgeStyle;rounded=0;orthogonalLoop=1;jettySize=auto;html=1;" edge="1" parent="1" source="cua7ZDRnnkRjORxVJLJu-17" target="cua7ZDRnnkRjORxVJLJu-2">
          <mxGeometry relative="1" as="geometry" />
        </mxCell>
        <mxCell id="cua7ZDRnnkRjORxVJLJu-17" value="fast" style="text;html=1;align=center;verticalAlign=middle;resizable=0;points=[];autosize=1;strokeColor=none;fillColor=none;" vertex="1" parent="1">
          <mxGeometry x="320" y="270" width="40" height="30" as="geometry" />
        </mxCell>
        <mxCell id="cua7ZDRnnkRjORxVJLJu-22" value="" style="edgeStyle=orthogonalEdgeStyle;rounded=0;orthogonalLoop=1;jettySize=auto;html=1;" edge="1" parent="1" source="cua7ZDRnnkRjORxVJLJu-19" target="cua7ZDRnnkRjORxVJLJu-1">
          <mxGeometry relative="1" as="geometry" />
        </mxCell>
        <mxCell id="cua7ZDRnnkRjORxVJLJu-19" value="0" style="ellipse;whiteSpace=wrap;html=1;aspect=fixed;" vertex="1" parent="1">
          <mxGeometry x="160" y="200" width="40" height="40" as="geometry" />
        </mxCell>
        <mxCell id="cua7ZDRnnkRjORxVJLJu-23" value="" style="edgeStyle=orthogonalEdgeStyle;rounded=0;orthogonalLoop=1;jettySize=auto;html=1;" edge="1" parent="1" source="cua7ZDRnnkRjORxVJLJu-24" target="cua7ZDRnnkRjORxVJLJu-26">
          <mxGeometry relative="1" as="geometry" />
        </mxCell>
        <mxCell id="cua7ZDRnnkRjORxVJLJu-24" value="1" style="ellipse;whiteSpace=wrap;html=1;aspect=fixed;" vertex="1" parent="1">
          <mxGeometry x="240" y="412" width="40" height="40" as="geometry" />
        </mxCell>
        <mxCell id="cua7ZDRnnkRjORxVJLJu-25" value="" style="edgeStyle=orthogonalEdgeStyle;rounded=0;orthogonalLoop=1;jettySize=auto;html=1;" edge="1" parent="1" source="cua7ZDRnnkRjORxVJLJu-26" target="cua7ZDRnnkRjORxVJLJu-28">
          <mxGeometry relative="1" as="geometry" />
        </mxCell>
        <mxCell id="cua7ZDRnnkRjORxVJLJu-26" value="2" style="ellipse;whiteSpace=wrap;html=1;aspect=fixed;" vertex="1" parent="1">
          <mxGeometry x="320" y="412" width="40" height="40" as="geometry" />
        </mxCell>
        <mxCell id="cua7ZDRnnkRjORxVJLJu-27" value="" style="edgeStyle=orthogonalEdgeStyle;rounded=0;orthogonalLoop=1;jettySize=auto;html=1;" edge="1" parent="1" source="cua7ZDRnnkRjORxVJLJu-28" target="cua7ZDRnnkRjORxVJLJu-29">
          <mxGeometry relative="1" as="geometry" />
        </mxCell>
        <mxCell id="cua7ZDRnnkRjORxVJLJu-28" value="3" style="ellipse;whiteSpace=wrap;html=1;aspect=fixed;" vertex="1" parent="1">
          <mxGeometry x="400" y="412" width="40" height="40" as="geometry" />
        </mxCell>
        <mxCell id="cua7ZDRnnkRjORxVJLJu-29" value="4" style="ellipse;whiteSpace=wrap;html=1;aspect=fixed;" vertex="1" parent="1">
          <mxGeometry x="490" y="412" width="40" height="40" as="geometry" />
        </mxCell>
        <mxCell id="cua7ZDRnnkRjORxVJLJu-30" value="" style="edgeStyle=orthogonalEdgeStyle;rounded=0;orthogonalLoop=1;jettySize=auto;html=1;" edge="1" parent="1" source="cua7ZDRnnkRjORxVJLJu-31" target="cua7ZDRnnkRjORxVJLJu-37">
          <mxGeometry relative="1" as="geometry" />
        </mxCell>
        <mxCell id="cua7ZDRnnkRjORxVJLJu-31" value="dummy" style="text;html=1;align=center;verticalAlign=middle;resizable=0;points=[];autosize=1;strokeColor=none;fillColor=none;" vertex="1" parent="1">
          <mxGeometry x="150" y="350" width="60" height="30" as="geometry" />
        </mxCell>
        <mxCell id="cua7ZDRnnkRjORxVJLJu-32" value="" style="edgeStyle=orthogonalEdgeStyle;rounded=0;orthogonalLoop=1;jettySize=auto;html=1;entryX=0.5;entryY=1;entryDx=0;entryDy=0;" edge="1" parent="1" source="cua7ZDRnnkRjORxVJLJu-33" target="cua7ZDRnnkRjORxVJLJu-24">
          <mxGeometry relative="1" as="geometry">
            <mxPoint x="260" y="462" as="targetPoint" />
          </mxGeometry>
        </mxCell>
        <mxCell id="cua7ZDRnnkRjORxVJLJu-45" value="" style="edgeStyle=orthogonalEdgeStyle;rounded=0;orthogonalLoop=1;jettySize=auto;html=1;entryX=0.5;entryY=1;entryDx=0;entryDy=0;fillColor=#f8cecc;strokeColor=#b85450;" edge="1" parent="1" source="cua7ZDRnnkRjORxVJLJu-33" target="cua7ZDRnnkRjORxVJLJu-28">
          <mxGeometry relative="1" as="geometry">
            <mxPoint x="260" y="577" as="targetPoint" />
          </mxGeometry>
        </mxCell>
        <mxCell id="cua7ZDRnnkRjORxVJLJu-33" value="slow" style="text;html=1;align=center;verticalAlign=middle;resizable=0;points=[];autosize=1;strokeColor=none;fillColor=none;" vertex="1" parent="1">
          <mxGeometry x="235" y="482" width="50" height="30" as="geometry" />
        </mxCell>
        <mxCell id="cua7ZDRnnkRjORxVJLJu-34" value="" style="edgeStyle=orthogonalEdgeStyle;rounded=0;orthogonalLoop=1;jettySize=auto;html=1;entryX=0.5;entryY=0;entryDx=0;entryDy=0;fillColor=#dae8fc;strokeColor=#6c8ebf;" edge="1" parent="1" source="cua7ZDRnnkRjORxVJLJu-35" target="cua7ZDRnnkRjORxVJLJu-24">
          <mxGeometry relative="1" as="geometry" />
        </mxCell>
        <mxCell id="cua7ZDRnnkRjORxVJLJu-64" value="" style="edgeStyle=orthogonalEdgeStyle;rounded=0;orthogonalLoop=1;jettySize=auto;html=1;" edge="1" parent="1" source="cua7ZDRnnkRjORxVJLJu-35" target="cua7ZDRnnkRjORxVJLJu-26">
          <mxGeometry relative="1" as="geometry" />
        </mxCell>
        <mxCell id="cua7ZDRnnkRjORxVJLJu-35" value="fast" style="text;html=1;align=center;verticalAlign=middle;resizable=0;points=[];autosize=1;strokeColor=none;fillColor=none;" vertex="1" parent="1">
          <mxGeometry x="320" y="482" width="40" height="30" as="geometry" />
        </mxCell>
        <mxCell id="cua7ZDRnnkRjORxVJLJu-36" value="" style="edgeStyle=orthogonalEdgeStyle;rounded=0;orthogonalLoop=1;jettySize=auto;html=1;" edge="1" parent="1" source="cua7ZDRnnkRjORxVJLJu-37" target="cua7ZDRnnkRjORxVJLJu-24">
          <mxGeometry relative="1" as="geometry" />
        </mxCell>
        <mxCell id="cua7ZDRnnkRjORxVJLJu-37" value="0" style="ellipse;whiteSpace=wrap;html=1;aspect=fixed;" vertex="1" parent="1">
          <mxGeometry x="160" y="412" width="40" height="40" as="geometry" />
        </mxCell>
        <mxCell id="cua7ZDRnnkRjORxVJLJu-48" value="" style="edgeStyle=orthogonalEdgeStyle;rounded=0;orthogonalLoop=1;jettySize=auto;html=1;" edge="1" parent="1" source="cua7ZDRnnkRjORxVJLJu-49" target="cua7ZDRnnkRjORxVJLJu-51">
          <mxGeometry relative="1" as="geometry" />
        </mxCell>
        <mxCell id="cua7ZDRnnkRjORxVJLJu-49" value="2" style="ellipse;whiteSpace=wrap;html=1;aspect=fixed;" vertex="1" parent="1">
          <mxGeometry x="250" y="622" width="40" height="40" as="geometry" />
        </mxCell>
        <mxCell id="cua7ZDRnnkRjORxVJLJu-50" value="" style="edgeStyle=orthogonalEdgeStyle;rounded=0;orthogonalLoop=1;jettySize=auto;html=1;" edge="1" parent="1" source="cua7ZDRnnkRjORxVJLJu-51" target="cua7ZDRnnkRjORxVJLJu-53">
          <mxGeometry relative="1" as="geometry" />
        </mxCell>
        <mxCell id="cua7ZDRnnkRjORxVJLJu-51" value="1" style="ellipse;whiteSpace=wrap;html=1;aspect=fixed;" vertex="1" parent="1">
          <mxGeometry x="330" y="622" width="40" height="40" as="geometry" />
        </mxCell>
        <mxCell id="cua7ZDRnnkRjORxVJLJu-52" value="" style="edgeStyle=orthogonalEdgeStyle;rounded=0;orthogonalLoop=1;jettySize=auto;html=1;" edge="1" parent="1" source="cua7ZDRnnkRjORxVJLJu-53" target="cua7ZDRnnkRjORxVJLJu-54">
          <mxGeometry relative="1" as="geometry" />
        </mxCell>
        <mxCell id="cua7ZDRnnkRjORxVJLJu-53" value="3" style="ellipse;whiteSpace=wrap;html=1;aspect=fixed;" vertex="1" parent="1">
          <mxGeometry x="410" y="622" width="40" height="40" as="geometry" />
        </mxCell>
        <mxCell id="cua7ZDRnnkRjORxVJLJu-54" value="4" style="ellipse;whiteSpace=wrap;html=1;aspect=fixed;" vertex="1" parent="1">
          <mxGeometry x="500" y="622" width="40" height="40" as="geometry" />
        </mxCell>
        <mxCell id="cua7ZDRnnkRjORxVJLJu-55" value="" style="edgeStyle=orthogonalEdgeStyle;rounded=0;orthogonalLoop=1;jettySize=auto;html=1;" edge="1" parent="1" source="cua7ZDRnnkRjORxVJLJu-56" target="cua7ZDRnnkRjORxVJLJu-63">
          <mxGeometry relative="1" as="geometry" />
        </mxCell>
        <mxCell id="cua7ZDRnnkRjORxVJLJu-56" value="dummy" style="text;html=1;align=center;verticalAlign=middle;resizable=0;points=[];autosize=1;strokeColor=none;fillColor=none;" vertex="1" parent="1">
          <mxGeometry x="160" y="560" width="60" height="30" as="geometry" />
        </mxCell>
        <mxCell id="cua7ZDRnnkRjORxVJLJu-57" value="" style="edgeStyle=orthogonalEdgeStyle;rounded=0;orthogonalLoop=1;jettySize=auto;html=1;entryX=0.5;entryY=1;entryDx=0;entryDy=0;" edge="1" parent="1" source="cua7ZDRnnkRjORxVJLJu-59">
          <mxGeometry relative="1" as="geometry">
            <mxPoint x="430" y="680" as="targetPoint" />
          </mxGeometry>
        </mxCell>
        <mxCell id="cua7ZDRnnkRjORxVJLJu-59" value="slow" style="text;html=1;align=center;verticalAlign=middle;resizable=0;points=[];autosize=1;strokeColor=none;fillColor=none;" vertex="1" parent="1">
          <mxGeometry x="405" y="710" width="50" height="30" as="geometry" />
        </mxCell>
        <mxCell id="cua7ZDRnnkRjORxVJLJu-65" value="" style="edgeStyle=orthogonalEdgeStyle;rounded=0;orthogonalLoop=1;jettySize=auto;html=1;" edge="1" parent="1" source="cua7ZDRnnkRjORxVJLJu-61">
          <mxGeometry relative="1" as="geometry">
            <mxPoint x="520" y="670" as="targetPoint" />
          </mxGeometry>
        </mxCell>
        <mxCell id="cua7ZDRnnkRjORxVJLJu-61" value="fast" style="text;html=1;align=center;verticalAlign=middle;resizable=0;points=[];autosize=1;strokeColor=none;fillColor=none;" vertex="1" parent="1">
          <mxGeometry x="500" y="700" width="40" height="30" as="geometry" />
        </mxCell>
        <mxCell id="cua7ZDRnnkRjORxVJLJu-62" value="" style="edgeStyle=orthogonalEdgeStyle;rounded=0;orthogonalLoop=1;jettySize=auto;html=1;" edge="1" parent="1" source="cua7ZDRnnkRjORxVJLJu-63" target="cua7ZDRnnkRjORxVJLJu-49">
          <mxGeometry relative="1" as="geometry" />
        </mxCell>
        <mxCell id="cua7ZDRnnkRjORxVJLJu-63" value="0" style="ellipse;whiteSpace=wrap;html=1;aspect=fixed;" vertex="1" parent="1">
          <mxGeometry x="170" y="622" width="40" height="40" as="geometry" />
        </mxCell>
        <mxCell id="cua7ZDRnnkRjORxVJLJu-70" value="2" style="rounded=0;whiteSpace=wrap;html=1;fillColor=#d5e8d4;strokeColor=#82b366;" vertex="1" parent="1">
          <mxGeometry x="40" y="622" width="40" height="40" as="geometry" />
        </mxCell>
        <mxCell id="cua7ZDRnnkRjORxVJLJu-71" value="" style="edgeStyle=orthogonalEdgeStyle;rounded=0;orthogonalLoop=1;jettySize=auto;html=1;" edge="1" parent="1" source="cua7ZDRnnkRjORxVJLJu-72" target="cua7ZDRnnkRjORxVJLJu-74">
          <mxGeometry relative="1" as="geometry" />
        </mxCell>
        <mxCell id="cua7ZDRnnkRjORxVJLJu-72" value="2" style="ellipse;whiteSpace=wrap;html=1;aspect=fixed;" vertex="1" parent="1">
          <mxGeometry x="270" y="852" width="40" height="40" as="geometry" />
        </mxCell>
        <mxCell id="cua7ZDRnnkRjORxVJLJu-73" value="" style="edgeStyle=orthogonalEdgeStyle;rounded=0;orthogonalLoop=1;jettySize=auto;html=1;" edge="1" parent="1" source="cua7ZDRnnkRjORxVJLJu-74" target="cua7ZDRnnkRjORxVJLJu-76">
          <mxGeometry relative="1" as="geometry" />
        </mxCell>
        <mxCell id="cua7ZDRnnkRjORxVJLJu-74" value="1" style="ellipse;whiteSpace=wrap;html=1;aspect=fixed;" vertex="1" parent="1">
          <mxGeometry x="350" y="852" width="40" height="40" as="geometry" />
        </mxCell>
        <mxCell id="cua7ZDRnnkRjORxVJLJu-75" value="" style="edgeStyle=orthogonalEdgeStyle;rounded=0;orthogonalLoop=1;jettySize=auto;html=1;" edge="1" parent="1" source="cua7ZDRnnkRjORxVJLJu-76" target="cua7ZDRnnkRjORxVJLJu-77">
          <mxGeometry relative="1" as="geometry" />
        </mxCell>
        <mxCell id="cua7ZDRnnkRjORxVJLJu-76" value="3" style="ellipse;whiteSpace=wrap;html=1;aspect=fixed;" vertex="1" parent="1">
          <mxGeometry x="430" y="852" width="40" height="40" as="geometry" />
        </mxCell>
        <mxCell id="cua7ZDRnnkRjORxVJLJu-77" value="4" style="ellipse;whiteSpace=wrap;html=1;aspect=fixed;" vertex="1" parent="1">
          <mxGeometry x="520" y="852" width="40" height="40" as="geometry" />
        </mxCell>
        <mxCell id="cua7ZDRnnkRjORxVJLJu-78" value="" style="edgeStyle=orthogonalEdgeStyle;rounded=0;orthogonalLoop=1;jettySize=auto;html=1;" edge="1" parent="1" source="cua7ZDRnnkRjORxVJLJu-79" target="cua7ZDRnnkRjORxVJLJu-85">
          <mxGeometry relative="1" as="geometry" />
        </mxCell>
        <mxCell id="cua7ZDRnnkRjORxVJLJu-79" value="dummy" style="text;html=1;align=center;verticalAlign=middle;resizable=0;points=[];autosize=1;strokeColor=none;fillColor=none;" vertex="1" parent="1">
          <mxGeometry x="180" y="790" width="60" height="30" as="geometry" />
        </mxCell>
        <mxCell id="cua7ZDRnnkRjORxVJLJu-80" value="" style="edgeStyle=orthogonalEdgeStyle;rounded=0;orthogonalLoop=1;jettySize=auto;html=1;entryX=0.5;entryY=1;entryDx=0;entryDy=0;" edge="1" parent="1" source="cua7ZDRnnkRjORxVJLJu-81">
          <mxGeometry relative="1" as="geometry">
            <mxPoint x="450" y="910" as="targetPoint" />
          </mxGeometry>
        </mxCell>
        <mxCell id="cua7ZDRnnkRjORxVJLJu-87" value="" style="edgeStyle=orthogonalEdgeStyle;rounded=0;orthogonalLoop=1;jettySize=auto;html=1;" edge="1" parent="1" source="cua7ZDRnnkRjORxVJLJu-81" target="cua7ZDRnnkRjORxVJLJu-86">
          <mxGeometry relative="1" as="geometry" />
        </mxCell>
        <mxCell id="cua7ZDRnnkRjORxVJLJu-81" value="slow" style="text;html=1;align=center;verticalAlign=middle;resizable=0;points=[];autosize=1;strokeColor=none;fillColor=none;" vertex="1" parent="1">
          <mxGeometry x="425" y="940" width="50" height="30" as="geometry" />
        </mxCell>
        <mxCell id="cua7ZDRnnkRjORxVJLJu-82" value="" style="edgeStyle=orthogonalEdgeStyle;rounded=0;orthogonalLoop=1;jettySize=auto;html=1;" edge="1" parent="1" source="cua7ZDRnnkRjORxVJLJu-83">
          <mxGeometry relative="1" as="geometry">
            <mxPoint x="540" y="900" as="targetPoint" />
          </mxGeometry>
        </mxCell>
        <mxCell id="cua7ZDRnnkRjORxVJLJu-89" value="" style="edgeStyle=orthogonalEdgeStyle;rounded=0;orthogonalLoop=1;jettySize=auto;html=1;entryX=0.5;entryY=0;entryDx=0;entryDy=0;" edge="1" parent="1" source="cua7ZDRnnkRjORxVJLJu-83" target="cua7ZDRnnkRjORxVJLJu-76">
          <mxGeometry relative="1" as="geometry">
            <mxPoint x="640" y="945" as="targetPoint" />
          </mxGeometry>
        </mxCell>
        <mxCell id="cua7ZDRnnkRjORxVJLJu-83" value="fast" style="text;html=1;align=center;verticalAlign=middle;resizable=0;points=[];autosize=1;strokeColor=none;fillColor=none;" vertex="1" parent="1">
          <mxGeometry x="520" y="930" width="40" height="30" as="geometry" />
        </mxCell>
        <mxCell id="cua7ZDRnnkRjORxVJLJu-84" value="" style="edgeStyle=orthogonalEdgeStyle;rounded=0;orthogonalLoop=1;jettySize=auto;html=1;" edge="1" parent="1" source="cua7ZDRnnkRjORxVJLJu-85" target="cua7ZDRnnkRjORxVJLJu-72">
          <mxGeometry relative="1" as="geometry" />
        </mxCell>
        <mxCell id="cua7ZDRnnkRjORxVJLJu-85" value="0" style="ellipse;whiteSpace=wrap;html=1;aspect=fixed;" vertex="1" parent="1">
          <mxGeometry x="190" y="852" width="40" height="40" as="geometry" />
        </mxCell>
        <mxCell id="cua7ZDRnnkRjORxVJLJu-86" value="null" style="text;html=1;align=center;verticalAlign=middle;resizable=0;points=[];autosize=1;strokeColor=none;fillColor=none;" vertex="1" parent="1">
          <mxGeometry x="430" y="1050" width="40" height="30" as="geometry" />
        </mxCell>
      </root>
    </mxGraphModel>
  </diagram>
</mxfile>
